<svg width="24" height="24" viewBox="0 0 24 24" fill="none" xmlns="http://www.w3.org/2000/svg">
<g clip-path="url(#clip0_42_1789)">
<path d="M12 23.5C18.3513 23.5 23.5 18.3513 23.5 12C23.5 5.64873 18.3513 0.5 12 0.5C5.64873 0.5 0.5 5.64873 0.5 12C0.5 18.3513 5.64873 23.5 12 23.5Z" fill="#0056B8"/>
<path d="M17.4734 7.96584C17.7685 7.67522 18.2433 7.67866 18.534 7.97365C18.8246 8.26872 18.8212 8.74353 18.5262 9.0342L10.9109 16.5342C10.619 16.8217 10.1502 16.8217 9.8582 16.5342L6.47343 13.2012L6.42168 13.1445C6.1793 12.8518 6.19323 12.4173 6.46562 12.1406C6.738 11.8642 7.1722 11.8434 7.46855 12.0811L7.52617 12.1328L10.3836 14.9473L17.4734 7.96584Z" fill="white"/>
</g>
<defs>
<clipPath id="clip0_42_1789">
<rect width="24" height="24" fill="white"/>
</clipPath>
</defs>
</svg>
