<svg width="29" height="29" viewBox="0 0 29 29" fill="none" xmlns="http://www.w3.org/2000/svg">
<path d="M17.2611 10.0132C19.2471 9.75598 19.7139 13.3453 17.7026 13.9839C15.7776 14.2756 15.2894 10.5128 17.2611 10.0132Z" fill="#0056B8"/>
<path d="M17.3047 5.01805C20.5619 4.78426 23.3524 6.83273 23.9333 10.5225C23.9911 10.8883 24.0532 12.5686 23.9233 12.9161L23.9083 12.9559C23.67 13.5976 23.2739 13.9276 22.6366 14L22.3511 13.9833C21.3891 13.8243 21.3056 12.8271 21.3234 12.008C21.3684 9.97144 20.1515 8.04146 18.1953 8.02635L17.4703 8.02873C16.97 8.03032 16.5575 7.95001 16.2563 7.43471L16.2363 7.39892C15.6354 6.36912 16.2492 5.11348 17.3047 5.01805Z" fill="#0056B8"/>
<path d="M17.9052 0.00688781C18.7999 -4.39481e-05 19.6546 0.0492486 20.5316 0.25104C25.0096 1.27848 28.6669 5.36437 28.9843 10.1827C29.0125 10.6125 28.994 11.0576 28.9947 11.489V12.2915C28.9954 12.4702 29.0073 12.6697 28.9666 12.8445L28.9577 12.8807C28.7734 13.6393 28.0882 14.1261 27.3407 13.9713L27.1912 13.9312C26.2603 13.5531 26.1899 12.9354 26.1936 12.0589L26.1922 10.4638C26.0693 6.59591 22.6748 3.36725 19.0656 2.96752C18.4528 2.89974 17.5966 3.01373 17.08 2.92131C15.5763 2.65174 15.6925 0.355016 17.12 0.0315341C17.3568 -0.0216094 17.6617 0.0091984 17.9059 0.00611761L17.9052 0.00688781Z" fill="#0056B8"/>
<path d="M3.7603 4.00228C4.5756 3.94678 5.2818 4.91707 5.79295 5.42096L7.34359 6.93406C8.62895 8.22081 9.83509 8.66992 8.42419 10.4195C7.91154 11.0546 7.30174 11.6803 6.92212 12.3983L6.93856 12.4466C7.22776 13.2777 7.71799 14.093 8.20149 14.8334C10.134 17.7911 12.9252 20.3004 16.1856 21.8532C16.5324 22.0183 16.9053 22.1906 17.2827 22.2785C18.1563 22.4825 19.6352 19.5615 21.2247 20.3855C21.4967 20.5268 21.7209 20.7625 21.9398 20.9694L24.7908 23.726C25.1151 24.0432 25.8153 24.5341 25.9401 24.9724L25.9491 25.0063C26.2308 26.0104 25.284 26.5706 24.5651 27.0954C21.8315 29.0554 20.1852 29.5103 16.977 28.4246C10.6033 26.2664 5.09572 21.4192 1.96304 15.684L1.23517 14.2055C-0.3633 10.8087 -0.619623 8.86311 1.72391 5.72877L2.38452 4.925C2.78358 4.47085 3.12285 4.10176 3.76104 4.003L3.7603 4.00228Z" fill="#0056B8"/>
</svg>
