<svg width="19" height="19" viewBox="0 0 19 19" fill="none" xmlns="http://www.w3.org/2000/svg">
<path d="M17.481 17.481L13.361 13.361M7.867 14.734C8.76879 14.734 9.66174 14.5564 10.4949 14.2113C11.328 13.8662 12.085 13.3604 12.7227 12.7227C13.3604 12.085 13.8662 11.328 14.2113 10.4949C14.5564 9.66174 14.734 8.76879 14.734 7.867C14.734 6.96521 14.5564 6.07226 14.2113 5.23911C13.8662 4.40597 13.3604 3.64896 12.7227 3.0113C12.085 2.37364 11.328 1.86782 10.4949 1.52272C9.66174 1.17762 8.76879 1 7.867 1C6.04576 1 4.29911 1.72348 3.0113 3.0113C1.72348 4.29911 1 6.04576 1 7.867C1 9.68824 1.72348 11.4349 3.0113 12.7227C4.29911 14.0105 6.04576 14.734 7.867 14.734V14.734Z" stroke="#242424" stroke-width="1.7" stroke-linecap="round"/>
</svg>
