<svg width="41" height="40" viewBox="0 0 41 40" fill="none" xmlns="http://www.w3.org/2000/svg">
<g clip-path="url(#clip0_46_1225)">
<path d="M20.5 40C31.5457 40 40.5 31.0457 40.5 20C40.5 8.9543 31.5457 0 20.5 0C9.4543 0 0.5 8.9543 0.5 20C0.5 31.0457 9.4543 40 20.5 40Z" fill="#3F8AE2"/>
<path d="M19.7 28.8C25.4438 28.8 30.1 24.1438 30.1 18.4C30.1 12.6562 25.4438 8 19.7 8C13.9563 8 9.30005 12.6562 9.30005 18.4C9.30005 24.1438 13.9563 28.8 19.7 28.8Z" fill="#3F8AE2" stroke="white"/>
<path d="M14.9 15.2002L17.3 22.4002L19.7 15.2002L22.1 22.4002L24.5 15.2002" stroke="white" stroke-linecap="round" stroke-linejoin="round"/>
<path d="M15.2 17.6001H13.8C13.5239 17.6001 13.3 17.824 13.3 18.1001C13.3 18.3762 13.5239 18.6001 13.8 18.6001H15.2C15.4762 18.6001 15.7 18.3762 15.7 18.1001C15.7 17.824 15.4762 17.6001 15.2 17.6001Z" fill="white"/>
<path d="M25.6001 17.6001H24.2001C23.9239 17.6001 23.7001 17.824 23.7001 18.1001C23.7001 18.3762 23.9239 18.6001 24.2001 18.6001H25.6001C25.8762 18.6001 26.1001 18.3762 26.1001 18.1001C26.1001 17.824 25.8762 17.6001 25.6001 17.6001Z" fill="white"/>
<path d="M26.9971 25.3657L31.6254 29.9941C31.881 30.2497 31.9616 30.5835 31.8054 30.7397L31.2397 31.3054C31.0835 31.4616 30.7497 31.381 30.494 31.1254L25.8657 26.4971" stroke="white" stroke-linejoin="round"/>
</g>
<defs>
<clipPath id="clip0_46_1225">
<rect width="40" height="40" fill="white" transform="translate(0.5)"/>
</clipPath>
</defs>
</svg>
